<svg width="874" height="1068" viewBox="0 0 874 1068" fill="none" xmlns="http://www.w3.org/2000/svg">
<path d="M147.763 43.5568L3.41329 530.215C-2.98053 551.771 3.21411 575.092 19.4618 590.634L117.925 684.821C132.736 698.989 139.29 719.738 135.305 739.844L103.569 899.952C96.9737 933.228 119.254 965.349 152.731 970.83L735.834 1066.29C768.568 1071.65 799.44 1049.43 804.753 1016.69L873.105 595.485C876.181 576.534 870.002 557.256 856.483 543.625L719.99 405.989C707.165 393.057 700.908 374.999 702.984 356.904L730.858 113.843C734.673 80.5734 710.516 50.62 677.193 47.3025L211.23 0.914058C182.584 -1.93777 155.95 15.9577 147.763 43.5568Z" fill="#EF223A"/>
</svg>
