<svg width="1055" height="986" viewBox="0 0 1055 986" fill="none" xmlns="http://www.w3.org/2000/svg">
<path d="M699.143 0.000278411L60.0822 2.39258e-05C26.913 1.07172e-05 0.0368203 26.913 0.0821996 60.0821L0.880067 643.267C0.90191 659.232 7.28616 674.531 18.6197 685.776L303.653 968.592C314.892 979.743 330.082 986 345.914 986H752.157C768.014 986 783.227 979.722 794.47 968.539L1037.19 727.113C1060.79 703.637 1060.77 665.435 1037.14 641.986L776.878 383.693C765.528 372.428 759.144 357.097 759.143 341.106L759.143 60.0002C759.143 26.8631 732.28 0.000291607 699.143 0.000278411Z" fill="#EF223A"/>
</svg>
