<svg width="912" height="1056" viewBox="0 0 912 1056" fill="none" xmlns="http://www.w3.org/2000/svg">
<path d="M765.663 430.243L757.072 59.3274C756.226 22.7671 723.149 -4.53828 687.09 1.55568L106.35 99.7013C79.5322 104.233 59.1175 126.237 56.6045 153.318L0.864886 753.989C-0.932157 773.355 6.7689 792.39 21.5258 805.058L295.989 1040.68C308.838 1051.71 325.75 1056.8 342.552 1054.68L782.142 999.445C806.727 996.355 826.885 978.47 832.879 954.427L910.026 644.984C914.992 625.065 909.43 603.99 895.282 589.117L782.174 470.207C771.895 459.4 766.009 445.153 765.663 430.243Z" fill="#EF223A"/>
</svg>
